<?xml version="1.0" encoding="utf-8"?>
<!-- Generator: Adobe Illustrator 15.1.0, SVG Export Plug-In . SVG Version: 6.00 Build 0)  -->
<!DOCTYPE svg PUBLIC "-//W3C//DTD SVG 1.1//EN" "http://www.w3.org/Graphics/SVG/1.1/DTD/svg11.dtd">
<svg version="1.1" id="Layer_1" xmlns="http://www.w3.org/2000/svg" xmlns:xlink="http://www.w3.org/1999/xlink" x="0px" y="0px"
	 width="386.813px" height="97.802px" viewBox="0 0 386.813 97.802" enable-background="new 0 0 386.813 97.802"
	 xml:space="preserve">
<path fill="#231F20" d="M152.078,12.159l-39.42,59.178L88.497,34.981l15.392-22.823H56.112L77.493,44.33L60.146,70.054
	L21.528,12.159h-4.684l40.946,61.387l-4.53,6.717L7.854,12.159H3.171L53.243,87.26l26.582-39.42l26.554,39.954l50.382-75.635
	H152.078z M86.141,38.476l24.176,36.376l-3.934,5.906l-24.2-36.413L86.141,38.476z M96.863,15.604L86.164,31.472L75.619,15.604
	H96.863z M70.94,15.604l12.867,19.361l-3.958,5.87L63.081,15.604H70.94z"/>
<path fill="#010101" d="M200.558,12.404h-16.836l-0.304,6.078c-0.635,11.871-3.327,18.434-4.759,20.409h-3.253v8.353h2.875v-5.477
	h23.284v5.477h2.875V38.89h-3.883V12.404z M197.56,38.89h-15.507c1.231-2.048,3.526-7.873,4.239-18.73l0.306-4.88h10.962V38.89z"/>
<path fill="#010101" d="M260.362,12.404h2.998v29.362h-2.998V28.955c-1.755,1.041-4.62,2.102-7.759,2.102
	c-5.642,0-8.877-3.474-8.877-9.531v-9.122h2.998v8.632c0,4.675,2.23,7.146,6.451,7.146c2.33,0,4.747-0.755,7.187-2.246V12.404z"/>
<path fill="#010101" d="M235.378,31.668l4.362,10.098h-3.229l-3.095-7.222h-15.388l-3.095,7.222h-3.106l4.363-10.098H235.378z
	 M226.949,12.159h-2.331l-7.011,16.226h16.352L226.949,12.159z M225.721,16.593l3.963,9.291h-7.952L225.721,16.593z"/>
<path fill="#010101" d="M287.238,12.159h-2.331l-7.011,16.226h16.352L287.238,12.159z M286.01,16.593l3.963,9.291h-7.952
	L286.01,16.593z M295.667,31.668l4.362,10.098H296.8l-3.095-7.222h-15.388l-3.095,7.222h-3.106l4.362-10.098H295.667z"/>
<g>
	<polygon fill="#010101" points="226.49,58.433 229.053,58.433 229.053,87.794 226.055,87.794 226.055,63.585 207.363,87.794 
		204.801,87.794 204.801,58.433 207.799,58.433 207.799,82.642 	"/>
	<polygon fill="#010101" points="272.651,58.433 296.822,58.433 296.822,61.308 286.235,61.308 286.235,87.794 283.237,87.794 
		283.237,61.308 272.651,61.308 	"/>
	<path fill="#010101" d="M339.733,58.351c-0.824,0-2.188,0.021-3.542,0.041c-1.333,0.021-2.657,0.041-3.448,0.041h-0.375v29.361
		h2.998V76.335c1.77,0.119,3.473,0.137,4.367,0.137c7.789,0,10.553-4.914,10.553-9.122
		C350.286,63.989,348.915,58.351,339.733,58.351z M339.651,73.597c-1.599,0-3.003-0.082-4.285-0.178V61.297
		c1.43-0.038,3.467-0.071,4.571-0.071c4.661,0,7.228,2.16,7.228,6.084C347.165,71.246,344.356,73.597,339.651,73.597z"/>
	<polygon fill="#010101" points="320.936,70.741 305.594,70.741 305.594,58.433 322.162,58.433 322.162,61.308 308.592,61.308 
		308.592,67.866 320.936,67.866 	"/>
	<polygon fill="#010101" points="308.592,84.919 322.57,84.919 322.57,87.794 305.594,87.794 305.594,74.875 320.936,74.875 
		320.936,77.751 308.592,77.751 	"/>
	<polygon fill="#010101" points="240.771,74.875 263.88,74.875 263.88,87.794 260.882,87.794 260.882,77.751 243.77,77.751 
		243.77,87.794 240.771,87.794 	"/>
	<polygon fill="#010101" points="260.882,58.433 263.88,58.433 263.88,70.741 240.771,70.741 240.771,58.433 243.77,58.433 
		243.77,67.866 260.882,67.866 	"/>
	<path fill="#010101" d="M381.772,87.794h-3.229l-3.095-7.222h-15.388l-3.095,7.222h-3.106l4.362-10.098h19.188L381.772,87.794z
		 M368.981,58.187h-2.331l-7.011,16.227h16.352L368.981,58.187z M367.753,62.622l3.963,9.291h-7.952L367.753,62.622z"/>
	<path fill="#010101" d="M193.409,64.612c0-3.385-2.744-6.129-6.129-6.129h-11.175v12.258h11.175
		C190.665,70.741,193.409,67.997,193.409,64.612z M179.104,61.358h8.176c1.726,0,3.13,1.527,3.13,3.254
		c0,1.726-1.404,3.254-3.13,3.254h-8.176V61.358z M188.587,74.875h-12.481v12.919h12.481c3.566,0,6.459-2.893,6.459-6.459
		C195.046,77.767,192.153,74.875,188.587,74.875z M188.587,84.919h-9.482v-7.168h9.482c1.907,0,3.46,1.676,3.46,3.584
		S190.494,84.919,188.587,84.919z"/>
</g>
</svg>
